# xmcd CD database file
# Copyright (C) 1993-1998 Ti Kan
#
# Track frame offsets:
#  150
#  20867
#  38592
#  55742
#  72465
#  88645
#  111402
#  128572
#  149875
#
# Disc length: 2282 seconds
#
# Revision: 1
# Processed by: cddbd v1.4b41PL1 Copyright (c) Steve Scherf et al.
# Submitted via: CDWizzard Release:4.35
#
DISCID=8508e809
DTITLE=Tommy Ray O'Dell - Healing Flames
DYEAR=1900
DGENRE=
TTITLE0=Take Up My Cross
TTITLE1=Put Your Hope In God
TTITLE2=Set Me Afire
TTITLE3=Glory Overwhelming
TTITLE4=Jesus Cristo
TTITLE5=God Of Wonders
TTITLE6=You'll Rescue Me
TTITLE7=I Don't Weep For You
TTITLE8=Thank You For Her
EXTD=
EXTT0=
EXTT1=
EXTT2=
EXTT3=
EXTT4=
EXTT5=
EXTT6=
EXTT7=
EXTT8=
PLAYORDER=
